<?xml version="1.0" encoding="UTF-8" standalone="no"?>
<svg
   version="1.1"
   width="3.9370in"
   height="3.9370in"
   viewBox="0 0 283.4646 283.4646"
   id="svg2"
   sodipodi:docname="Indofood.cdr"
   xmlns:inkscape="http://www.inkscape.org/namespaces/inkscape"
   xmlns:sodipodi="http://sodipodi.sourceforge.net/DTD/sodipodi-0.dtd"
   xmlns="http://www.w3.org/2000/svg"
   xmlns:svg="http://www.w3.org/2000/svg">
  <defs
     id="defs2" />
  <sodipodi:namedview
     id="namedview2"
     pagecolor="#ffffff"
     bordercolor="#000000"
     borderopacity="0.25"
     inkscape:showpageshadow="2"
     inkscape:pageopacity="0.0"
     inkscape:pagecheckerboard="0"
     inkscape:deskcolor="#d1d1d1"
     inkscape:document-units="in" />
  <g
     id="Layer1000">
    <path
       d="  M50.0161,168.1284 C50.1386,167.3658 49.9306,167.3947 49.4292,167.2399 C49.3032,167.2191 49.2663,167.1059 49.3310,166.9834 L49.4696,166.6529 C49.5551,166.5547 49.6244,166.4773 49.7145,166.4773 L52.7474,166.4773 C52.8988,166.4773 52.9473,166.5836 52.8618,166.7997 L52.7636,167.0238 C52.7024,167.1983 52.6169,167.2191 52.5268,167.2595 C52.2125,167.3531 51.8994,167.4432 51.7966,168.1284 L50.8272,174.6783 C50.6319,175.9458 50.8064,176.2150 51.4465,176.2150 L52.2622,176.2150 C53.2685,176.2150 53.5701,174.7638 53.7619,174.8736 L54.0842,175.0122 C54.1374,175.0122 54.1536,175.0850 54.1374,175.1543 L53.9410,176.5003 C53.8682,176.8909 53.6475,177.0214 53.3413,177.0214 L47.9942,177.0214 C47.8521,177.0214 47.8070,176.9313 47.9006,176.7118 L47.9942,176.4876 C48.0762,176.3455 48.1282,176.2958 48.2264,176.2716 C48.5199,176.1653 48.8538,176.0844 48.9439,175.3785 L50.0161,168.1284 Z Z M57.1553,172.9995 L58.9889,168.8343 L59.0178,168.8343 L59.4868,172.9995 L57.1553,172.9995 Z Z M62.3522,176.2681 C61.9652,176.1260 61.7445,176.0775 61.6428,175.2745 C61.2396,172.8239 60.8028,169.8453 60.4204,166.9349 C60.4204,166.6945 60.3719,166.4785 60.2251,166.4785 L58.2113,166.4785 C58.0888,166.4785 57.9710,166.5027 57.9132,166.6529 L57.8277,166.8655 C57.6244,167.2202 58.1339,167.1301 58.3661,167.4363 C58.4516,167.5865 58.6792,167.8072 58.3858,168.4669 L55.4141,175.0653 C55.1691,175.5911 54.9612,175.9700 54.5545,176.1653 C54.3627,176.2670 54.2240,176.2958 54.1512,176.4507 L54.0172,176.8031 C53.8832,177.0884 54.0946,177.0226 54.2252,177.0226 L55.9617,177.0226 C56.0877,177.0226 56.1374,176.9047 56.1986,176.8227 L56.3534,176.5454 C56.5649,176.2230 55.6764,176.2970 55.9617,175.6569 L56.7405,173.9608 L59.6301,173.9608 L59.7930,175.4073 C59.8947,176.4276 59.3447,176.1260 59.1726,176.4888 L59.0386,176.7453 C58.9565,176.9371 58.9900,177.0226 59.1483,177.0226 L61.9975,177.0226 C62.0795,177.0226 62.1812,176.9821 62.2540,176.8597 L62.4458,176.4969 C62.4943,176.4276 62.4782,176.2970 62.3522,176.2681 Z Z M72.5821,175.3796 C72.4839,176.1341 72.7045,176.1260 73.1933,176.2681 C73.3238,176.2970 73.3400,176.4276 73.2869,176.5408 L73.1112,176.8597 C73.0581,176.9810 72.9888,177.0260 72.8871,177.0260 L69.8623,177.0260 C69.7109,177.0260 69.6786,176.9325 69.7525,176.7083 L69.8623,176.4923 C69.9351,176.3455 70.0090,176.2970 70.0991,176.2681 C70.4169,176.1664 70.7022,176.0809 70.8201,175.3796 L71.6959,169.4247 L71.6751,169.3877 L67.9293,176.6956 C67.8276,176.8874 67.7664,177.0260 67.6844,177.0260 L67.4810,177.0260 C67.4117,177.0260 67.3504,176.8146 67.3181,176.5489 L65.8300,169.5183 L65.8057,169.5183 L64.9553,175.3796 C64.8328,176.1341 65.0281,176.1260 65.5423,176.2681 C65.6971,176.2970 65.6971,176.4276 65.6197,176.5408 L65.4729,176.8585 C65.4163,176.9810 65.3424,177.0260 65.2569,177.0260 L63.2107,177.0260 C63.0316,177.0260 63.0154,176.9325 63.1252,176.7083 L63.2107,176.4923 C63.2673,176.3455 63.3285,176.2970 63.4394,176.2681 C63.7572,176.1664 64.0553,176.0809 64.1569,175.3796 L65.2372,168.0475 C65.0743,167.6154 64.6630,167.3219 64.4134,167.2156 C64.2586,167.1590 64.2586,167.0643 64.3199,166.9464 L64.4712,166.6321 C64.4920,166.5062 64.5856,166.4808 64.6792,166.4808 L66.4400,166.4808 C66.7254,166.4808 66.9253,166.6321 66.9946,167.0631 L68.4411,174.0578 L72.0852,166.9857 C72.2770,166.6552 72.4723,166.4808 72.7253,166.4808 L74.6456,166.4808 C74.7923,166.4808 74.8409,166.5871 74.7634,166.7985 L74.6560,167.0643 C74.5751,167.1994 74.5139,167.2445 74.3914,167.2965 C74.0575,167.3947 73.7802,167.4559 73.6785,168.1734 L72.5821,175.3796 Z Z M78.1568,176.3525 C77.5214,176.3525 77.0315,176.1364 77.2071,175.0110 L77.6762,171.7667 L78.4549,171.7667 C79.4578,171.7667 79.9096,172.8227 79.9096,173.7309 C79.9096,174.6933 79.5017,176.3525 78.1568,176.3525 Z Z M78.3937,167.2179 L79.1227,167.2179 C79.9096,167.2179 80.2724,167.8049 80.2724,168.6240 C80.2724,170.1041 79.4289,170.9718 78.5566,170.9718 L77.8102,170.9718 L78.3925,167.2179 L78.3937,167.2179 Z Z M79.9789,171.2653 L79.9789,171.2167 C80.8801,170.9718 81.9685,170.0879 81.9685,168.6240 C81.9685,167.2422 81.1944,166.4796 79.7674,166.4796 L76.0748,166.4796 C76.0263,166.4796 75.9489,166.5490 75.8876,166.6911 L75.7317,167.0666 C75.6427,167.2017 75.7478,167.2422 75.8865,167.3000 C76.3602,167.4051 76.5266,167.6535 76.4492,168.2208 L75.2718,176.0590 C75.1990,176.4946 75.2718,176.7522 75.4428,176.8539 C75.9731,177.1266 76.6698,177.2167 77.7212,177.2167 C80.8593,177.2167 81.7074,175.1543 81.7074,173.7482 C81.7074,173.2837 81.5236,171.4906 79.9789,171.2664 Z M79.9789,171.2653 L79.9789,171.2653 L79.9789,171.2653 Z Z M84.8327,172.9995 L86.6917,168.8343 L86.7079,168.8343 L87.1481,172.9995 L84.8327,172.9995 Z Z M90.0169,176.2681 C89.6253,176.1260 89.4138,176.0775 89.3156,175.2745 C88.9286,172.8239 88.4595,169.8453 88.1013,166.9349 C88.1013,166.6945 88.0447,166.4785 87.8852,166.4785 L85.8714,166.4785 C85.7616,166.4785 85.6519,166.5027 85.5779,166.6529 L85.4924,166.8655 C85.2891,167.2202 85.8182,167.1301 86.0181,167.4363 C86.1163,167.5865 86.3613,167.8072 86.0678,168.4669 L83.1042,175.0653 C82.8350,175.5911 82.6236,175.9700 82.2192,176.1653 C82.0401,176.2670 81.8934,176.2958 81.8321,176.4507 L81.6935,176.8031 C81.5629,177.0884 81.7790,177.0226 81.8934,177.0226 L83.6461,177.0226 C83.7639,177.0226 83.8171,176.9047 83.8783,176.8227 L84.0378,176.5454 C84.2169,176.2230 83.3445,176.2970 83.6345,175.6569 L84.4052,173.9608 L87.2867,173.9608 L87.4739,175.4073 C87.5594,176.4276 87.0175,176.1260 86.8338,176.4888 L86.7194,176.7453 C86.6259,176.9371 86.6906,177.0226 86.8130,177.0226 L89.6830,177.0226 C89.7766,177.0226 89.8621,176.9821 89.9395,176.8597 L90.1151,176.4969 C90.1683,176.4276 90.1278,176.2970 90.0169,176.2681 Z Z M97.9880,174.2346 L98.0042,174.2346 L98.9007,168.1284 C99.0232,167.3670 98.8360,167.3947 98.3103,167.2399 C98.1717,167.2202 98.1717,167.1059 98.2410,166.9880 L98.3831,166.6576 C98.4444,166.5513 98.5010,166.4819 98.6073,166.4819 L100.6454,166.4819 C100.7967,166.4819 100.8372,166.5836 100.7551,166.8043 L100.6454,167.0238 C100.5761,167.1994 100.5148,167.2202 100.4259,167.2607 C100.1162,167.3543 99.8100,167.4478 99.7003,168.1284 L98.4605,176.5870 C98.3993,176.8550 98.2895,177.0272 98.1058,177.0272 L97.2705,177.0272 C97.1237,177.0272 97.0175,176.9290 96.7690,176.3467 L93.5940,169.0793 L93.5813,169.0793 L92.6686,175.3761 C92.5703,176.1341 92.7587,176.1260 93.2717,176.2693 C93.4022,176.2982 93.4230,176.4287 93.3618,176.5385 L93.1908,176.8562 C93.1261,176.9787 93.0649,177.0272 92.9666,177.0272 L90.9412,177.0272 C90.7737,177.0272 90.7252,176.9336 90.8349,176.7048 L90.9412,176.4888 C90.9863,176.3467 91.0753,176.2970 91.1654,176.2693 C91.4716,176.1676 91.7766,176.0821 91.8540,175.3761 L92.9505,168.0440 C92.8037,167.6165 92.3924,167.3231 92.1475,167.2202 C91.9880,167.1636 91.9927,167.0654 92.0331,166.9476 L92.2041,166.6298 C92.2411,166.5074 92.3139,166.4831 92.4040,166.4831 L94.3762,166.4831 C94.6408,166.5074 94.7425,166.7974 94.9066,167.1070 L97.9880,174.2346 Z Z M108.4073,176.2138 C108.3380,176.6459 108.2560,177.0122 108.0041,177.0122 L106.8383,177.0122 C106.6188,177.0122 106.7043,176.6009 106.7366,176.4495 L106.7805,176.2138 L106.7401,176.1768 C106.4628,176.6944 105.4761,177.2121 104.7389,177.2121 C102.0654,177.2121 100.9192,174.6078 100.9192,172.5454 C100.9192,169.8349 102.6234,166.3098 106.4420,166.3098 C107.7499,166.3098 108.5783,166.8436 108.8510,167.0677 C108.9654,167.1451 108.9330,167.2595 108.9295,167.3647 L108.7297,168.7061 C108.7297,168.7546 108.6881,168.7835 108.6603,168.8401 L108.4073,169.0816 C108.1300,169.3346 108.1508,167.1659 106.3126,167.1659 C103.9440,167.1659 102.8233,170.2312 102.8233,172.3999 C102.8233,174.5801 103.7441,176.1780 105.0971,176.1780 C106.4501,176.1780 107.1063,174.8412 107.1063,173.9608 C107.1063,173.5853 107.0613,173.3253 106.7355,173.1982 C106.5517,172.9868 106.2791,172.9984 106.3854,172.7707 L106.5402,172.4692 C106.6176,172.3224 106.7031,172.2739 106.8383,172.2739 L108.7297,172.2739 C108.9665,172.2739 108.9376,172.4207 108.9295,172.6737 L108.4073,176.2138 Z Z M163.2341,175.3796 C163.1244,176.1341 163.3277,176.1260 163.8372,176.2681 C163.9794,176.2970 163.9794,176.4276 163.9147,176.5408 L163.7841,176.8597 C163.7067,176.9810 163.6293,177.0260 163.5357,177.0260 L160.4993,177.0260 C160.3572,177.0260 160.3283,176.9325 160.4057,176.7083 L160.4993,176.4923 C160.5606,176.3455 160.6414,176.2970 160.7316,176.2681 C161.0377,176.1664 161.3508,176.0809 161.4571,175.3796 L162.3375,169.4247 L162.3214,169.3877 L158.5675,176.6956 C158.4728,176.8874 158.3953,177.0260 158.3064,177.0260 L158.1435,177.0260 C158.0453,177.0260 158.0014,176.8146 157.9517,176.5489 L156.4843,169.5183 L156.4554,169.5183 L155.5912,175.3796 C155.4814,176.1341 155.6767,176.1260 156.1943,176.2681 C156.3364,176.2970 156.3364,176.4276 156.2764,176.5408 L156.1169,176.8585 C156.0395,176.9810 155.9783,177.0260 155.9009,177.0260 L153.8466,177.0260 C153.6790,177.0260 153.6467,176.9325 153.7449,176.7083 L153.8466,176.4923 C153.8951,176.3455 153.9806,176.2970 154.0707,176.2681 C154.3723,176.1664 154.6900,176.0809 154.7755,175.3796 L155.8720,168.0475 C155.7171,167.6154 155.3012,167.3219 155.0528,167.2156 C154.9014,167.1590 154.9014,167.0643 154.9546,166.9464 L155.1059,166.6321 C155.1545,166.5062 155.2284,166.4808 155.3255,166.4808 L157.0655,166.4808 C157.3751,166.4808 157.5588,166.6321 157.6443,167.0631 L159.0793,174.0578 L162.7431,166.9857 C162.8979,166.6552 163.1221,166.4808 163.3462,166.4808 L165.2699,166.4808 C165.4571,166.4808 165.4733,166.5871 165.3843,166.7985 L165.3046,167.0643 C165.2226,167.1994 165.1371,167.2445 165.0192,167.2965 C164.6807,167.3947 164.4404,167.4559 164.3260,168.1734 L163.2341,175.3796 Z Z M167.6639,172.9995 L169.5068,168.8343 L169.5114,168.8343 L169.9909,172.9995 L167.6639,172.9995 Z Z M172.8481,176.2681 C172.4611,176.1260 172.2497,176.0775 172.1272,175.2745 C171.7598,172.8239 171.2872,169.8453 170.9290,166.9349 C170.9290,166.6945 170.8713,166.4785 170.7292,166.4785 L168.7038,166.4785 C168.5928,166.4785 168.4623,166.5027 168.4184,166.6529 L168.3236,166.8655 C168.1203,167.2202 168.6344,167.1301 168.8378,167.4363 C168.9475,167.5865 169.1879,167.8072 168.8863,168.4669 L165.9274,175.0653 C165.6743,175.5911 165.4710,175.9700 165.0389,176.1653 C164.8794,176.2670 164.7211,176.2958 164.6680,176.4507 L164.5212,176.8007 C164.3872,177.0861 164.5906,177.0203 164.7211,177.0203 L166.4658,177.0203 C166.5917,177.0203 166.6368,176.9024 166.7061,176.8204 L166.8609,176.5431 C167.0527,176.2207 166.1596,176.2947 166.4531,175.6546 L167.2156,173.9585 L170.1133,173.9585 L170.2890,175.4050 C170.3906,176.4276 169.8568,176.1260 169.6616,176.4888 L169.5472,176.7453 C169.4652,176.9371 169.5056,177.0226 169.6616,177.0226 L172.4946,177.0226 C172.5963,177.0226 172.6783,176.9821 172.7638,176.8597 L172.9510,176.4969 C172.9960,176.4276 172.9672,176.2970 172.8493,176.2681 Z M172.8481,176.2681 L172.8481,176.2681 L172.8481,176.2681 Z Z M176.9879,171.3126 L177.0122,171.3612 L180.6066,166.4819 L182.0093,166.4819 L181.9238,167.1105 C181.8914,167.5299 181.1866,167.5876 180.2565,168.7488 L178.3490,171.0920 C179.1843,172.8770 180.3386,175.2410 180.5985,175.6973 C180.8308,176.1248 181.0792,176.3455 181.0387,176.4957 L180.9740,177.0260 L179.5113,177.0260 C179.1855,177.0260 178.9001,176.7407 178.5408,175.9134 L176.9186,171.9030 L176.8897,171.9030 L176.4010,175.3796 C176.2623,176.1341 176.4703,176.1260 176.9879,176.2646 C177.1185,176.2935 177.1266,176.4276 177.0780,176.5385 L176.8978,176.8562 C176.8447,176.9821 176.7961,177.0272 176.6944,177.0272 L173.6373,177.0272 C173.5148,177.0272 173.4536,176.9371 173.5472,176.7095 L173.6373,176.4934 C173.7228,176.3467 173.7678,176.2935 173.8903,176.2646 C174.1884,176.1664 174.4934,176.0775 174.6032,175.3796 L175.6754,168.1249 C175.7898,167.3623 175.5899,167.3959 175.0804,167.2445 C174.9579,167.2202 174.9579,167.1105 174.9983,166.9880 L175.1740,166.6576 C175.2225,166.5478 175.2675,166.4819 175.3738,166.4819 L178.4148,166.4819 C178.5662,166.4819 178.5904,166.5882 178.5130,166.7997 L178.4310,167.0204 C178.3490,167.1994 178.2796,167.2202 178.1699,167.2607 C177.8683,167.3508 177.5621,167.4444 177.4732,168.1249 L176.9879,171.3126 Z Z M184.1791,172.9995 L186.0092,168.8343 L186.0416,168.8343 L186.5187,172.9995 L184.1791,172.9995 Z Z M189.3633,176.2681 C188.9890,176.1260 188.7567,176.0775 188.6632,175.2745 C188.2715,172.8239 187.8186,169.8453 187.4442,166.9349 C187.4442,166.6945 187.3992,166.4785 187.2570,166.4785 L185.2316,166.4785 C185.0999,166.4785 184.9948,166.5027 184.9336,166.6529 L184.8400,166.8655 C184.6401,167.2202 185.1577,167.1301 185.3691,167.4363 C185.4673,167.5865 185.7030,167.8072 185.4142,168.4669 L182.4425,175.0653 C182.1895,175.5911 181.9896,175.9700 181.5748,176.1653 C181.3796,176.2670 181.2525,176.2958 181.1635,176.4507 L181.0376,176.8007 C180.9070,177.0861 181.1196,177.0203 181.2536,177.0203 L182.9936,177.0203 C183.1196,177.0203 183.1612,176.9024 183.2224,176.8204 L183.3934,176.5431 C183.5852,176.2207 182.6967,176.2947 182.9775,175.6546 L183.7597,173.9585 L186.6620,173.9585 L186.8134,175.4050 C186.9358,176.4241 186.3651,176.1225 186.1941,176.4853 L186.0624,176.7453 C185.9850,176.9371 186.0092,177.0226 186.1721,177.0226 L189.0329,177.0226 C189.1022,177.0226 189.1923,176.9821 189.2813,176.8597 L189.4650,176.4969 C189.5054,176.4276 189.4939,176.2970 189.3633,176.2681 Z Z M197.3344,174.2346 L197.3633,174.2346 L198.2679,168.1284 C198.3777,167.3670 198.1697,167.3947 197.6683,167.2399 C197.5296,167.2202 197.5296,167.1059 197.5631,166.9880 L197.7388,166.6576 C197.7954,166.5513 197.8612,166.4819 197.9756,166.4819 L200.0056,166.4819 C200.1570,166.4819 200.2055,166.5836 200.1038,166.8043 L200.0045,167.0238 C199.9513,167.1994 199.8612,167.2202 199.7723,167.2607 C199.4661,167.3543 199.1564,167.4478 199.0548,168.1284 L197.8069,176.5870 C197.7700,176.8550 197.6359,177.0272 197.4649,177.0272 L196.6296,177.0272 C196.4540,177.0272 196.3846,176.9290 196.1073,176.3467 L192.9728,169.0793 L192.9404,169.0793 L192.0230,175.3761 C191.9087,176.1341 192.1212,176.1260 192.6308,176.2693 C192.7567,176.2982 192.7856,176.4287 192.7082,176.5385 L192.5568,176.8562 C192.4921,176.9787 192.4309,177.0272 192.3246,177.0272 L190.2749,177.0272 C190.1571,177.0272 190.0912,176.9336 190.1767,176.7048 L190.2749,176.4888 C190.3650,176.3467 190.4136,176.2970 190.5118,176.2693 C190.8006,176.1676 191.1149,176.0821 191.2131,175.3761 L192.3257,168.0440 C192.1455,167.6154 191.7457,167.3219 191.4939,167.2202 C191.3344,167.1625 191.3587,167.0654 191.3829,166.9464 L191.5505,166.6287 C191.6152,166.5062 191.6764,166.4819 191.7700,166.4819 L193.7307,166.4819 C193.9884,166.5062 194.1016,166.7962 194.2402,167.1059 L197.3344,174.2346 Z Z M201.9814,172.9995 L203.8242,168.8343 L203.8647,168.8343 L204.3337,172.9995 L201.9814,172.9995 Z Z M207.1829,176.2681 C206.7959,176.1260 206.5671,176.0775 206.4781,175.2745 C206.0865,172.8239 205.6255,169.8453 205.2511,166.9349 C205.2511,166.6945 205.2095,166.4785 205.0432,166.4785 L203.0374,166.4785 C202.9115,166.4785 202.8052,166.5027 202.7520,166.6529 L202.6584,166.8655 C202.4470,167.2202 202.9808,167.1301 203.1841,167.4363 C203.2858,167.5865 203.5227,167.8072 203.2165,168.4669 L200.2529,175.0653 C199.9918,175.5911 199.7919,175.9700 199.3852,176.1653 C199.2061,176.2670 199.0548,176.2958 198.9935,176.4507 L198.8387,176.8007 C198.7324,177.0861 198.9242,177.0203 199.0548,177.0203 L200.8156,177.0203 C200.9300,177.0203 200.9623,176.9024 201.0235,176.8204 L201.1992,176.5431 C201.3910,176.2207 200.5186,176.2947 200.8075,175.6546 L201.5735,173.9585 L204.4551,173.9585 L204.6307,175.4050 C204.7370,176.4276 204.1824,176.1260 204.0033,176.4888 L203.8854,176.7453 C203.7919,176.9371 203.8242,177.0226 203.9744,177.0226 L206.8398,177.0226 C206.9334,177.0226 207.0431,176.9821 207.0928,176.8597 L207.2719,176.4969 C207.3285,176.4276 207.3123,176.2970 207.1818,176.2681 Z M207.1829,176.2681 L207.1829,176.2681 L207.1829,176.2681 Z Z M215.1517,174.2346 L215.1806,174.2346 L216.0818,168.1284 C216.2077,167.3670 215.9997,167.3947 215.4821,167.2399 C215.3516,167.2202 215.3516,167.1059 215.4093,166.9880 L215.5480,166.6576 C215.6335,166.5513 215.6993,166.4819 215.7929,166.4819 L217.8264,166.4819 C217.9685,166.4819 218.0182,166.5836 217.9281,166.8043 L217.8264,167.0238 C217.7686,167.1994 217.6912,167.2202 217.5896,167.2607 C217.3042,167.3543 216.9737,167.4478 216.9009,168.1284 L215.6369,176.5870 C215.6000,176.8550 215.4740,177.0272 215.2788,177.0272 L214.4550,177.0272 C214.2921,177.0272 214.2019,176.9290 213.9327,176.3467 L210.7901,169.0793 L210.7612,169.0793 L209.8438,175.3761 C209.7537,176.1341 209.9420,176.1260 210.4469,176.2693 C210.5809,176.2982 210.6064,176.4287 210.5370,176.5385 L210.3695,176.8562 C210.3291,176.9787 210.2470,177.0272 210.1407,177.0272 L208.1073,177.0272 C207.9559,177.0272 207.9074,176.9336 208.0137,176.7048 L208.1073,176.4888 C208.1847,176.3467 208.2413,176.2970 208.3233,176.2693 C208.6491,176.1676 208.9310,176.0821 209.0489,175.3761 L210.1407,168.0440 C209.9859,167.6165 209.5862,167.3231 209.3054,167.2202 C209.1540,167.1636 209.1748,167.0654 209.2199,166.9476 L209.3620,166.6298 C209.4267,166.5074 209.5007,166.4831 209.5908,166.4831 L211.5630,166.4831 C211.8265,166.5062 211.9397,166.7962 212.0830,167.1059 L215.1517,174.2346 Z Z M224.2735,176.3525 C223.6496,176.3525 223.1528,176.1364 223.3238,175.0110 L223.8044,171.7667 L224.5785,171.7667 C225.5826,171.7667 226.0181,172.8227 226.0181,173.7309 C226.0181,174.6933 225.6114,176.3525 224.2735,176.3525 Z Z M224.5023,167.2179 L225.2359,167.2179 C226.0181,167.2179 226.3971,167.8049 226.3971,168.6240 C226.3971,170.1041 225.5375,170.9718 224.6860,170.9718 L223.9119,170.9718 L224.5034,167.2179 L224.5023,167.2179 Z Z M226.0713,171.2653 L226.0713,171.2167 C227.0048,170.9718 228.0886,170.0879 228.0886,168.6240 C228.0886,167.2422 227.3226,166.4796 225.8714,166.4796 L222.2030,166.4796 C222.1383,166.4796 222.0644,166.5490 221.9916,166.6922 L221.8322,167.0666 C221.7467,167.2017 221.8657,167.2422 222.0124,167.3000 C222.4769,167.4051 222.6432,167.6535 222.5658,168.2208 L221.4081,176.0590 C221.3261,176.4946 221.4081,176.7522 221.5549,176.8539 C222.0771,177.1266 222.7900,177.2167 223.8287,177.2167 C226.9921,177.2167 227.8310,175.1543 227.8310,173.7482 C227.8310,173.2837 227.6311,171.4906 226.0701,171.2664 Z M226.0713,171.2653 L226.0713,171.2653 L226.0713,171.2653 Z Z M234.9978,166.4819 C235.2104,166.4819 235.3040,166.6576 235.2301,167.0238 L235.0753,168.1203 C235.0753,168.1653 235.0383,168.1977 235.0186,168.2462 L234.7656,168.5039 C234.5010,168.7650 234.5368,167.2976 233.7870,167.2976 L232.3150,167.2976 L231.7812,170.8597 L234.2630,170.8597 C234.4144,170.8597 234.4467,170.9418 234.3855,171.0920 L234.1567,171.6338 C234.0747,171.7852 233.9568,171.8175 233.7858,171.8175 L231.6253,171.8175 L231.1931,174.6748 C231.0141,175.9469 231.1643,176.2115 231.8090,176.2115 L232.7587,176.2115 C233.7535,176.2115 234.0747,174.7649 234.2630,174.8747 L234.5808,175.0134 C234.6293,175.0134 234.6455,175.0861 234.6293,175.1555 L234.4190,176.4923 C234.3866,176.8886 234.1544,177.0272 233.8529,177.0272 L229.5929,177.0272 C229.3075,177.0272 229.0915,177.0399 229.2301,175.9146 L230.3878,168.2277 C230.4733,167.6535 230.3058,167.4086 229.8413,167.2988 C229.6819,167.2422 229.5767,167.2006 229.6738,167.0666 L229.8205,166.6911 C229.8783,166.5478 229.9603,166.4819 230.0054,166.4819 L234.9978,166.4819 Z Z M239.2335,171.5264 L238.5079,171.5264 L239.1318,167.2225 L239.8944,167.2225 C240.6523,167.2214 241.0232,167.9886 241.0232,168.9221 C241.0232,170.4057 240.1960,171.5264 239.2335,171.5264 Z M242.8903,168.9221 C242.8903,167.6061 242.3161,166.4808 240.5911,166.4808 L236.8499,166.4808 C236.7933,166.4808 236.7113,166.5536 236.6420,166.6922 L236.4825,167.0666 C236.3843,167.2017 236.5230,167.2422 236.6662,167.3000 C237.1388,167.4051 237.3017,167.6535 237.2243,168.2243 L236.1486,175.3785 C236.0423,176.0786 235.7327,176.1641 235.4230,176.2704 C235.3248,176.2947 235.2474,176.3444 235.1943,176.4865 L235.0961,176.7060 C235.0140,176.9348 235.0394,177.0203 235.2104,177.0203 L238.2272,177.0203 C238.3335,177.0203 238.3820,176.9752 238.4271,176.8574 L238.6061,176.5396 C238.6674,176.4299 238.6674,176.2947 238.5160,176.2704 C238.0146,176.1283 237.8031,176.1364 237.9372,175.3773 L238.3727,172.3652 L239.1919,172.3652 L240.3288,176.5674 C240.4062,176.8562 240.6015,177.0203 240.7771,177.0203 L242.5137,177.0203 L242.5137,176.5396 C242.1474,176.1364 241.6252,174.4645 240.7367,172.1422 C241.9233,171.6777 242.8892,170.3814 242.8892,168.9221 Z M242.8903,168.9221 L242.8903,168.9221 L242.8903,168.9221 Z Z M252.6592,175.3796 C252.5563,176.1341 252.7608,176.1260 253.2623,176.2681 C253.3882,176.2970 253.4171,176.4276 253.3593,176.5408 L253.1930,176.8597 C253.1352,176.9810 253.0578,177.0260 252.9526,177.0260 L249.9359,177.0260 C249.7603,177.0260 249.7407,176.9325 249.8458,176.7083 L249.9359,176.4923 C249.9971,176.3455 250.0746,176.2970 250.1473,176.2681 C250.4489,176.1664 250.7909,176.0809 250.8810,175.3796 L251.7661,169.4247 L251.7533,169.3877 L247.9949,176.6956 C247.9128,176.8874 247.8239,177.0260 247.7418,177.0260 L247.5500,177.0260 C247.4772,177.0260 247.4276,176.8146 247.3744,176.5489 L245.9151,169.5183 L245.8828,169.5183 L245.0451,175.3796 C244.8984,176.1341 245.1064,176.1260 245.6159,176.2681 C245.7673,176.2970 245.7673,176.4276 245.7060,176.5408 L245.5547,176.8585 C245.5015,176.9810 245.4241,177.0260 245.3259,177.0260 L243.2762,177.0260 C243.1087,177.0260 243.0810,176.9325 243.1780,176.7083 L243.2762,176.4923 C243.3248,176.3455 243.4149,176.2970 243.5050,176.2681 C243.8146,176.1664 244.1046,176.0809 244.2179,175.3796 L245.3271,168.0475 C245.1480,167.6154 244.7320,167.3219 244.4709,167.2156 C244.3288,167.1590 244.3288,167.0643 244.3808,166.9464 L244.5437,166.6321 C244.5922,166.5062 244.6535,166.4808 244.7551,166.4808 L246.4836,166.4808 C246.7979,166.4808 246.9804,166.6321 247.0786,167.0631 L248.5055,174.0578 L252.1693,166.9857 C252.3322,166.6552 252.5321,166.4808 252.7770,166.4808 L254.7088,166.4808 C254.8845,166.4808 254.9249,166.5871 254.8186,166.7985 L254.7088,167.0643 C254.6603,167.1994 254.5667,167.2445 254.4558,167.2965 C254.1219,167.3947 253.8573,167.4559 253.7672,168.1734 L252.6592,175.3796 Z Z M262.0872,172.8239 C261.6597,175.6569 260.5181,177.2132 258.4719,177.2132 C256.2663,177.2132 255.3131,175.5344 255.7406,172.7419 L256.4177,168.1238 C256.5355,167.3658 256.3275,167.3947 255.7903,167.2433 C255.6678,167.2191 255.6678,167.1093 255.7418,166.9868 L255.9093,166.6564 C255.9544,166.5501 256.0433,166.4808 256.1126,166.4808 L259.1328,166.4808 C259.3038,166.4808 259.3362,166.5871 259.2391,166.7985 L259.1317,167.0204 C259.0832,167.1994 259.0138,167.2191 258.9237,167.2607 C258.6060,167.3496 258.3252,167.4432 258.2189,168.1249 L257.4725,172.9833 C257.1791,174.8088 257.6805,175.9954 258.9607,175.9954 C260.1958,175.9954 260.9699,174.8088 261.2796,172.7430 L261.9924,168.1249 C262.1022,167.3670 261.8861,167.3959 261.3847,167.2445 C261.2380,167.2202 261.2380,167.1105 261.3073,166.9880 L261.4586,166.6576 C261.5199,166.5513 261.5649,166.4819 261.6909,166.4819 L263.7244,166.4819 C263.8838,166.4819 263.9196,166.5882 263.8468,166.7997 L263.7255,167.0204 C263.6677,167.1994 263.5903,167.2191 263.4968,167.2607 C263.1836,167.3496 262.8648,167.4432 262.7920,168.1249 L262.0872,172.8239 Z Z M267.4863,175.3796 C267.3846,176.1341 267.5672,176.1260 268.0686,176.2681 C268.2073,176.2970 268.2119,176.4276 268.1541,176.5408 L268.0120,176.8597 C267.9473,176.9810 267.8734,177.0260 267.7833,177.0260 L264.7584,177.0260 C264.5909,177.0260 264.5551,176.9325 264.6244,176.7083 L264.7584,176.4923 C264.8070,176.3455 264.8809,176.2970 264.9745,176.2681 C265.2888,176.1664 265.5903,176.0809 265.6839,175.3796 L266.8624,167.4432 L264.4777,167.4432 C264.2246,167.4432 264.0421,167.3612 264.2131,167.0677 L264.6856,166.2485 C264.7758,166.0776 264.7954,165.9505 264.9098,166.0198 L265.0646,166.1642 C265.2645,166.3306 265.6516,166.4819 266.2350,166.4819 L271.3661,166.4819 C271.5175,166.4819 271.5903,166.6079 271.4805,166.7962 L271.1951,167.2607 C271.0449,167.4398 270.9340,167.4432 270.7549,167.4432 L268.6521,167.4432 L267.4863,175.3796 Z Z M278.2084,172.8239 C277.7970,175.6569 276.6474,177.2132 274.6093,177.2132 C272.4002,177.2132 271.4586,175.5344 271.8745,172.7419 L272.5342,168.1238 C272.6810,167.3658 272.4892,167.3947 271.9427,167.2433 C271.8121,167.2191 271.8121,167.1093 271.8733,166.9868 L272.0409,166.6564 C272.0940,166.5501 272.1749,166.4808 272.2650,166.4808 L275.2933,166.4808 C275.4447,166.4808 275.4805,166.5871 275.3753,166.7985 L275.2933,167.0204 C275.2321,167.1994 275.1720,167.2191 275.0692,167.2607 C274.7352,167.3496 274.4337,167.4432 274.3355,168.1249 L273.6018,172.9833 C273.3210,174.8088 273.8213,175.9954 275.0853,175.9954 C276.3366,175.9954 277.1234,174.8088 277.4331,172.7430 L278.1101,168.1249 C278.2361,167.3670 278.0200,167.3959 277.5186,167.2445 C277.3799,167.2202 277.3799,167.1105 277.4493,166.9880 L277.6041,166.6576 C277.6607,166.5513 277.7058,166.4819 277.8121,166.4819 L279.8502,166.4819 C280.0131,166.4819 280.0454,166.5882 279.9484,166.7997 L279.8502,167.0204 C279.8097,167.1994 279.7323,167.2191 279.6387,167.2607 C279.3129,167.3496 279.0194,167.4432 278.9051,168.1249 L278.2084,172.8239 Z"
       style="fill-rule: evenodd; fill: #818385; "
       id="path1" />
    <path
       d="  M10.2833,148.6981 C9.3983,156.8864 2.2337,155.5820 2.2337,155.5820 L2.8738,159.0713 L27.8349,159.0713 L28.9845,155.7252 C21.2931,155.9540 23.4490,150.0026 23.4490,150.0026 C23.4490,150.0026 29.7586,117.0323 29.8071,116.8890 C30.7858,111.8677 37.3761,113.0092 37.3761,113.0092 L36.6875,109.3536 L11.8408,109.3536 L10.4636,112.9653 C10.4636,112.9653 17.2007,112.1831 16.3977,117.5996 C16.3815,117.6562 10.2140,149.1268 10.2140,149.1268 Z M10.2833,148.6981 L10.2833,148.6981 L10.2833,148.6981 Z Z M47.9468,123.8803 L48.8318,119.5268 L32.1249,121.7151 L31.6361,124.4257 C31.6361,124.4257 37.2895,123.0034 35.3334,130.5435 L31.0457,152.4601 L42.3489,152.4601 L46.8815,129.4713 C46.8815,129.4713 47.2928,126.1819 51.7111,126.0432 C51.7111,126.0432 56.5984,126.1206 55.0247,132.8866 L51.0675,152.5283 L67.8034,150.4451 L68.2436,147.8281 C68.2436,147.8281 62.3696,148.8795 64.1350,143.5936 L66.8455,129.0588 C66.8455,129.0588 68.2112,120.7723 62.8883,119.4760 C62.8860,119.4783 56.8895,116.9433 47.9468,123.8803 Z Z M85.1123,152.6796 C85.1123,152.6796 76.1129,154.0984 72.1707,150.2175 C72.1707,150.2175 64.9807,144.7398 71.9223,131.3291 C78.8639,117.9231 94.2503,119.6966 94.2503,119.6966 L95.0579,115.4494 C95.0579,115.4494 95.8239,111.5696 89.2902,112.2744 L90.1914,109.3963 L107.9509,107.1341 L100.7205,143.8663 C100.7205,143.8663 99.1353,148.3943 106.4385,147.8767 L105.9810,150.3885 L87.8679,152.7362 L93.4808,123.8699 C93.4808,123.8699 87.1065,122.2108 83.2382,131.5533 C83.2382,131.5533 76.0644,148.7940 86.3070,149.9113 L85.8829,152.4509 L85.1123,152.6796 Z Z M130.2962,137.6526 C127.6307,151.8905 121.6597,149.7669 121.6597,149.7669 C121.6597,149.7669 116.2998,149.1233 119.2957,134.6659 C122.2547,120.5147 127.3742,122.4222 127.3742,122.4222 C130.0108,122.5840 132.5781,125.8121 130.2962,137.6526 Z Z M126.9132,118.5609 C116.8983,118.4997 107.7765,126.3170 106.5541,136.0628 C105.3317,145.7877 112.4523,153.7114 122.4788,153.7564 C132.5019,153.7969 141.6271,145.9552 142.8426,136.2176 C144.0616,126.5042 136.9524,118.6013 126.9132,118.5609 Z Z M187.7412,137.6526 C185.0306,151.8905 179.0919,149.7669 179.0919,149.7669 C179.0919,149.7669 173.7239,149.1233 176.7199,134.6659 C179.6546,120.5147 184.8030,122.4222 184.8030,122.4222 C187.4442,122.5840 190.0069,125.8121 187.7412,137.6526 Z M184.3455,118.5609 C174.3155,118.4997 165.2006,126.3170 163.9747,136.0628 C162.7604,145.7877 169.8927,153.7114 179.9041,153.7564 C189.9468,153.7969 199.0779,145.9552 200.2795,136.2176 C201.5100,126.5042 194.3812,118.6013 184.3466,118.5609 Z M184.3455,118.5609 L184.3455,118.5609 L184.3455,118.5609 Z Z M227.2417,137.6526 C224.5312,151.8905 218.5890,149.7669 218.5890,149.7669 C218.5890,149.7669 213.2372,149.1233 216.2285,134.6659 C219.1713,120.5135 224.3070,122.4211 224.3070,122.4211 C226.9436,122.5840 229.4959,125.8121 227.2417,137.6526 Z Z M223.8460,118.5609 C213.8149,118.4997 204.6931,126.3170 203.4822,136.0628 C202.2633,145.7877 209.3886,153.7114 219.4197,153.7564 C229.4381,153.7969 238.5599,145.9552 239.7754,136.2176 C241.0024,126.5042 233.8771,118.6013 223.8460,118.5609 Z Z M161.2434,123.5915 C161.2434,123.5915 161.4306,124.4268 157.8200,141.0321 C154.2209,157.6085 150.5283,162.4797 150.5283,162.4797 C141.5128,179.2398 127.7024,177.0388 127.7024,177.0388 C121.0173,177.0388 115.1848,171.4143 115.1848,165.7691 C115.1848,159.9609 120.4962,155.5993 127.1882,155.5993 L141.0217,155.5831 C141.0217,155.5831 141.2620,155.4687 140.1494,159.0967 L126.8947,159.0967 C122.2813,159.0967 119.4725,163.2099 119.4725,166.1238 C119.4725,169.5888 123.5360,173.2930 127.6157,173.2930 C127.6157,173.2930 131.6342,173.7043 134.5203,172.3560 C139.5821,169.9758 142.2846,162.5894 142.2846,162.5894 C143.9807,159.1417 146.4948,146.0858 146.4382,146.2695 C146.4382,146.2695 147.9136,140.0050 150.2290,123.7706 L149.6467,123.7706 L144.1690,123.7706 L145.1222,120.0040 C149.5323,119.3639 151.2285,116.4870 151.2285,116.4870 C151.2285,116.4870 156.3595,109.2438 159.7102,107.4668 C167.4952,103.3906 173.4825,110.8417 173.4825,110.8417 L165.6570,117.7798 C163.0158,115.0046 161.9886,114.3114 161.9886,114.3114 C159.4213,111.8250 157.4318,114.7192 157.4318,114.7192 C155.5323,119.9601 161.9886,119.7163 161.9886,119.7163 L169.4351,119.7163 L168.4288,123.5915 L161.2434,123.5915 Z Z M117.6805,155.5831 L32.5454,155.5831 L31.4894,159.1417 L113.8480,159.1417 C113.8480,159.1417 114.4916,156.8876 117.6793,155.5831 Z M117.6805,155.5831 L117.6805,155.5831 L117.6805,155.5831 Z Z M156.9511,155.5831 L279.3118,155.5831 L278.4880,159.1417 L155.6836,159.1417 C155.6836,159.1417 156.6900,157.5323 156.9511,155.5831 Z Z M258.4049,152.6796 C258.4049,152.6796 249.3929,154.0984 245.4310,150.2175 C245.4310,150.2175 238.2653,144.7398 245.2115,131.3291 C252.1450,117.9231 267.5152,119.6966 267.5152,119.6966 L268.3586,115.4494 C268.3586,115.4494 269.1131,111.5696 262.5713,112.2744 L263.4794,109.3963 L281.2309,107.1341 L274.0039,143.8674 C274.0039,143.8674 272.4187,148.3954 279.7219,147.8778 L279.2748,150.3885 L261.1652,152.7362 L266.7607,123.8699 C266.7607,123.8699 260.3945,122.2108 256.5136,131.5533 C256.5136,131.5533 249.3524,148.7940 259.6031,149.9113 L259.1721,152.4509 L258.4049,152.6796 Z"
       style="fill-rule: evenodd; fill: #01539c; "
       id="path2" />
  </g>
</svg>
