<?xml version="1.0" encoding="UTF-8"?>
<svg version="1.1" xmlns="http://www.w3.org/2000/svg" width="481" height="598">
<path d="M0 0 C0.90234375 0.40089844 1.8046875 0.80179688 2.734375 1.21484375 C13.417746 6.54109085 23.00887213 14.58777316 31.22265625 23.18359375 C33.00809586 25.00827379 34.86896212 26.65834201 36.8125 28.3125 C44.08766578 34.58518231 50.84810027 41.48601511 57.07421875 48.796875 C59.06504949 51.07441767 61.12763935 53.27584894 63.20214844 55.47705078 C73.54054751 66.48402141 82.78010607 78.32256903 91 91 C91.61705811 91.94866943 91.61705811 91.94866943 92.24658203 92.91650391 C106.41913196 115.01580021 112.58976422 137.46905131 109.5703125 163.73828125 C105.63188528 181.70431654 93.61436992 197.27181725 78.375 207.1875 C61.93805336 216.6316483 42.07889876 218.76302177 23.85693359 213.91748047 C18.2819251 212.27777209 13.06405797 209.92743751 7.79052734 207.51098633 C-11.85476812 198.63026941 -33.58642646 199.55266866 -53.54296875 206.63671875 C-56.63937358 207.85778687 -59.62451304 209.18771898 -62.625 210.625 C-77.92210273 217.7352369 -95.55187161 218.18391368 -111.5703125 213.2578125 C-129.88261045 206.54191279 -143.54038953 194.33612733 -152.15429688 176.83398438 C-159.98649134 159.8491562 -159.32575991 138.33653576 -153 121 C-152.5875 119.79730469 -152.175 118.59460938 -151.75 117.35546875 C-145.66956412 100.85883163 -135.83035196 86.71388086 -125 73 C-124.22785156 72.01386719 -123.45570313 71.02773438 -122.66015625 70.01171875 C-117.26655975 63.27216146 -111.44916979 56.96195858 -105.55273438 50.66601562 C-104.00951894 49.0102134 -102.47929297 47.3433923 -100.953125 45.671875 C-92.0855463 35.96638101 -83.07144374 26.47832446 -73 18 C-72.08476562 17.20722656 -71.16953125 16.41445312 -70.2265625 15.59765625 C-50.19657895 -1.52308804 -25.80442412 -11.49666382 0 0 Z " fill="#E2E2E4" transform="translate(264,201)"/>
<path d="M0 0 C13.10129784 11.66191759 18.65395959 32.03750847 20 49 C21.02893457 68.74242582 19.45701936 88.27370255 6.5234375 104.20703125 C-2.26137747 113.67856479 -13.9014491 120.28175334 -27 121 C-40.90579794 121.11139491 -51.69083347 116.81081427 -61.75 107.4375 C-72.86281303 95.39861922 -75.64846556 82.97189943 -75.30078125 67.03515625 C-74.33468293 45.76111453 -60.25178923 25.22129259 -45.22265625 10.87109375 C-33.02457701 0.60241193 -15.19489968 -12.04990882 0 0 Z " fill="#E2E2E4" transform="translate(330,51)"/>
<path d="M0 0 C2.48121232 1.92856135 4.83655694 3.93261148 7.16796875 6.0390625 C7.84085937 6.63074219 8.51375 7.22242187 9.20703125 7.83203125 C23.50663973 21.19162563 36.45286427 42.22299238 37.5078125 62.01171875 C37.76198381 70.66721717 37.74912333 79.00482005 34.16796875 87.0390625 C33.91273438 87.70421875 33.6575 88.369375 33.39453125 89.0546875 C28.51420732 100.42718548 18.34925436 108.50015778 7.29296875 113.4140625 C-3.08221677 116.89194159 -16.46230344 116.7334867 -26.48828125 112.29296875 C-41.76770958 104.1184746 -50.40713937 92.8534306 -55.99609375 76.66796875 C-62.02511094 53.19987846 -57.73612016 25.46847012 -45.89453125 4.4765625 C-41.88157926 -1.71484914 -37.33023031 -7.37240215 -30.04296875 -9.578125 C-18.80558102 -11.52382111 -9.00070643 -6.23221328 0 0 Z " fill="#E2E2E4" transform="translate(188.83203125,55.9609375)"/>
<path d="M0 0 C8.14227502 8.62123237 7.54921542 18.33419383 7.40234375 29.48828125 C7.14880809 37.17381735 5.56313568 43.98892717 3.125 51.25 C2.7125 52.48878906 2.3 53.72757813 1.875 55.00390625 C-5.26710602 74.46208714 -17.44531257 92.43837855 -36.6953125 101.40625 C-50.17737648 106.62511348 -63.97155502 106.95243362 -77.34765625 101.18359375 C-89.18037975 95.03382493 -97.25844646 85.40648792 -101.28833008 72.66796875 C-102.27789871 68.58944701 -102.36355467 64.61831004 -102.3125 60.4375 C-102.30492676 59.5623877 -102.29735352 58.68727539 -102.28955078 57.78564453 C-101.88566603 41.8395672 -94.1802325 29.14883525 -82.875 18.25 C-63.12978593 1.51558098 -24.55483104 -14.9464189 0 0 Z " fill="#E2E2E4" transform="translate(445.875,141.75)"/>
<path d="M0 0 C12.1829985 8.69462915 22.22368651 19.81492114 25.64038086 34.83544922 C27.45208302 45.7401005 27.33551768 58.16004216 22 68 C21.57589844 68.78375 21.15179688 69.5675 20.71484375 70.375 C14.36074694 80.85306494 4.52826865 88.1737222 -7.3125 91.3125 C-21.16690827 93.84922264 -35.04053227 91.45598067 -47 84 C-55.37157385 78.20886866 -61.34085603 71.41104143 -67 63 C-67.55429688 62.18789062 -68.10859375 61.37578125 -68.6796875 60.5390625 C-78.10093604 45.84581995 -83.29368565 28.44567756 -83.4375 11.0625 C-83.44765137 10.19866699 -83.45780273 9.33483398 -83.46826172 8.44482422 C-83.37025034 1.27895036 -82.28722671 -5.30224542 -77.5625 -10.875 C-76.716875 -11.57625 -75.87125 -12.2775 -75 -13 C-74.401875 -13.556875 -73.80375 -14.11375 -73.1875 -14.6875 C-51.87959722 -27.47224167 -18.13094274 -11.96693803 0 0 Z " fill="#E2E2E4" transform="translate(111,155)"/>
<path d="M0 0 C21 0 21 0 25.54296875 4.03125 C26.9621582 6.6574707 26.9621582 6.6574707 28.1875 9.5 C29.18371328 11.42118658 30.18112398 13.34175269 31.1796875 15.26171875 C31.87723145 16.70683838 31.87723145 16.70683838 32.58886719 18.18115234 C34.7077905 22.41386664 37.24313897 26.3431284 39.8125 30.3125 C40.63369348 31.6197249 41.45294531 32.92817322 42.26953125 34.23828125 C42.84058594 35.14964844 43.41164063 36.06101562 44 37 C45.23729398 35.05330676 46.4727339 33.10550518 47.70483398 31.15551758 C48.78744074 29.45146001 49.87961795 27.75344936 50.98071289 26.0612793 C54.24932278 20.99091808 57.10825232 15.97327654 59.50048828 10.43041992 C61.56103636 6.67655362 64.37472295 3.38308898 67 0 C73.93 0 80.86 0 88 0 C88 24.09 88 48.18 88 73 C81.07 73 74.14 73 67 73 C66.505 55.675 66.505 55.675 66 38 C64.205625 41.155625 62.41125 44.31125 60.5625 47.5625 C55.4960667 56.45010267 50.31651169 65.259977 45 74 C41.31313973 72.77104658 41.12785084 71.92959547 39.36328125 68.58203125 C38.86763672 67.65583984 38.37199219 66.72964844 37.86132812 65.77539062 C37.35021484 64.79763672 36.83910156 63.81988281 36.3125 62.8125 C31.69664139 54.10709955 26.89373153 45.56403017 22 37 C21.67 48.88 21.34 60.76 21 73 C14.07 73 7.14 73 0 73 C0 48.91 0 24.82 0 0 Z " fill="#E2E2E4" transform="translate(295,524)"/>
<path d="M0 0 C22.77 0 45.54 0 69 0 C69 5.61 69 11.22 69 17 C53.49 17 37.98 17 22 17 C22 20.63 22 24.26 22 28 C32.23 28 42.46 28 53 28 C53 33.28 53 38.56 53 44 C42.77 44 32.54 44 22 44 C22 47.63 22 51.26 22 55 C37.51 55 53.02 55 69 55 C69 60.94 69 66.88 69 73 C46.23 73 23.46 73 0 73 C0 48.91 0 24.82 0 0 Z " fill="#E2E2E4" transform="translate(412,524)"/>
<path d="M0 0 C22.77 0 45.54 0 69 0 C69 5.61 69 11.22 69 17 C53.16 17 37.32 17 21 17 C21 20.63 21 24.26 21 28 C31.23 28 41.46 28 52 28 C52 33.28 52 38.56 52 44 C41.77 44 31.54 44 21 44 C21 47.63 21 51.26 21 55 C36.84 55 52.68 55 69 55 C69 60.94 69 66.88 69 73 C46.23 73 23.46 73 0 73 C0 48.91 0 24.82 0 0 Z " fill="#E2E2E4" transform="translate(103,524)"/>
<path d="M0 0 C6.93 0 13.86 0 21 0 C21.33 8.91 21.66 17.82 22 27 C28.64081257 21.02326868 35.22482784 15.0210857 41.71679688 8.88867188 C42.33232422 8.31052734 42.94785156 7.73238281 43.58203125 7.13671875 C44.12061768 6.62842529 44.6592041 6.12013184 45.21411133 5.59643555 C45.80345459 5.06961182 46.39279785 4.54278809 47 4 C47.7636084 3.28336182 48.5272168 2.56672363 49.31396484 1.82836914 C52.61356297 -0.41764889 54.43614136 -0.46566557 58.39453125 -0.390625 C59.59658203 -0.37773438 60.79863281 -0.36484375 62.03710938 -0.3515625 C63.28298828 -0.31804688 64.52886719 -0.28453125 65.8125 -0.25 C67.07771484 -0.23195313 68.34292969 -0.21390625 69.64648438 -0.1953125 C72.76509335 -0.14823916 75.88215973 -0.08249094 79 0 C77.08782269 4.27267231 74.11804123 6.70323164 70.5625 9.625 C69.29685305 10.68331442 68.03254853 11.74323615 66.76953125 12.8046875 C66.13740723 13.33545898 65.5052832 13.86623047 64.85400391 14.41308594 C61.16597915 17.56980979 57.64439651 20.90852636 54.109375 24.234375 C52 26 52 26 50 26 C54.91000169 33.95002401 59.85330815 41.86671663 65.0625 49.625 C68.44563144 54.66889272 71.81366067 59.72107651 75.125 64.8125 C75.5156665 65.40562988 75.90633301 65.99875977 76.30883789 66.60986328 C79 70.76865392 79 70.76865392 79 73 C70.7717517 74.25034749 62.09438035 75.39462546 54 73 C48.2391772 68.61736447 45.23601216 61.89825105 42.20458984 55.48388672 C40.61328004 52.20257622 38.71401154 49.27981392 36.6875 46.25 C35.79057184 44.83402624 34.89419311 43.41770254 34 42 C33.32904297 42.58007812 33.32904297 42.58007812 32.64453125 43.171875 C32.03996094 43.69265625 31.43539063 44.2134375 30.8125 44.75 C29.92498047 45.51570312 29.92498047 45.51570312 29.01953125 46.296875 C27 48 27 48 24.3125 49.53125 C20.66402891 53.4262394 21.21995885 57.60507701 21.1875 62.75 C21.125625 66.1325 21.06375 69.515 21 73 C14.07 73 7.14 73 0 73 C0 48.91 0 24.82 0 0 Z " fill="#E2E2E4" transform="translate(0,524)"/>
<path d="M0 0 C6.93 0 13.86 0 21 0 C21 18.15 21 36.3 21 55 C37.83 55 54.66 55 72 55 C72 60.94 72 66.88 72 73 C48.24 73 24.48 73 0 73 C0 48.91 0 24.82 0 0 Z " fill="#E2E2E4" transform="translate(201,524)"/>
<path d="M0 0 C6.61485458 1.60360111 10.37882514 7.54208974 13.9375 12.9375 C15.36955077 17.06517574 15.83272016 20.68571651 15 25 C12.9375 28.0625 12.9375 28.0625 10 30 C5.69725091 30.69151325 3.79054688 30.51557405 0.125 28.125 C-3.96310947 24.03689053 -3.23549811 19.62342235 -3.25976562 14.1875 C-3.19727665 8.86151658 -2.40579698 4.81159395 0 0 Z " fill="#E2E2E4" transform="translate(146,0)"/>
<path d="M0 0 C-0.20469727 8.74615619 -2.29998962 16.1102455 -8.4375 22.5625 C-11.45618001 24.25590586 -13.53112459 24.92773176 -17 25 C-19.87872577 23.6260627 -21.74989437 22.25010563 -24 20 C-24.7773337 16.87155044 -24.73478768 14.134409 -24 11 C-18.83177447 3.6003679 -8.83485625 -0.3979665 0 0 Z " fill="#E2E2E4" transform="translate(481,109)"/>
<path d="M0 0 C8.25998557 0.31769175 16.55687739 3.3777888 22.328125 9.44921875 C24.9020209 13.37621413 24.58781311 15.37097175 24 20 C21.85744848 23.34238038 20.39717502 23.89167954 16.5625 24.9375 C12.35607944 25.01129685 11.15752871 24.75271733 8 22 C2.49323475 15.00010686 -0.36184598 9.04614958 0 0 Z " fill="#E2E2E4" transform="translate(0,109)"/>
<path d="M0 0 C3.13118498 7.56703037 4.00638475 14.83052379 3 23 C1.32138476 26.51429389 0.27806158 27.81462561 -3 30 C-7.28482877 30.55544077 -9.29695542 30.46371025 -12.9375 28.0625 C-15.30557155 24.54627254 -15.79371633 22.63335145 -15.55078125 18.46875 C-14.06603962 11.81373789 -7.54073328 0 0 0 Z " fill="#E2E2E4" transform="translate(335,0)"/>
</svg>
