<?xml version="1.0" encoding="UTF-8"?>
<!DOCTYPE svg PUBLIC "-//W3C//DTD SVG 1.1//EN" "http://www.w3.org/Graphics/SVG/1.1/DTD/svg11.dtd">
<svg xmlns="http://www.w3.org/2000/svg" version="1.1" width="1080px" height="551px" style="shape-rendering:geometricPrecision; text-rendering:geometricPrecision; image-rendering:optimizeQuality; fill-rule:evenodd; clip-rule:evenodd" xmlns:xlink="http://www.w3.org/1999/xlink">
<g><path style="opacity:1" fill="#ab202d" d="M 638.5,180.5 C 599.406,182.839 561.073,188.839 523.5,198.5C 491.865,205.824 460.865,215.157 430.5,226.5C 424.153,222.153 418.82,216.82 414.5,210.5C 414.369,209.761 414.536,209.094 415,208.5C 455.194,167.64 495.361,126.807 535.5,86C 540.131,84.7388 544.131,85.7388 547.5,89C 578.035,119.368 608.368,149.868 638.5,180.5 Z"/></g>
<g><path style="opacity:1" fill="#e7d6ae" d="M 695.5,205.5 C 694.022,206.448 693.022,207.781 692.5,209.5C 693.054,203.164 691.387,197.497 687.5,192.5C 681.833,187.5 676.167,182.5 670.5,177.5C 668.326,179.781 666.326,179.781 664.5,177.5C 663.713,178.242 663.047,179.075 662.5,180C 658.715,180.215 655.048,180.381 651.5,180.5C 654.403,182.41 657.236,184.41 660,186.5C 661.132,189.824 661.965,192.824 662.5,195.5C 657.702,191.203 653.035,186.703 648.5,182C 635.915,183.188 623.581,185.854 611.5,190C 599.014,193.986 586.68,198.153 574.5,202.5C 574.611,201.883 574.944,201.383 575.5,201C 573.939,200.682 572.772,199.849 572,198.5C 570.806,199.43 569.473,200.097 568,200.5C 556.173,199.177 544.34,199.177 532.5,200.5C 529.673,199.068 526.673,198.401 523.5,198.5C 561.073,188.839 599.406,182.839 638.5,180.5C 641.247,180.813 643.914,180.48 646.5,179.5C 646.333,179.167 646.167,178.833 646,178.5C 614.5,147 583,115.5 551.5,84C 545.008,77.6461 538.008,76.9795 530.5,82C 507.371,105.146 484.371,128.312 461.5,151.5C 455.38,149.773 448.88,148.773 442,148.5C 440.527,148.903 439.194,149.57 438,150.5C 434.159,149.583 433.826,148.25 437,146.5C 437.483,145.552 437.649,144.552 437.5,143.5C 466.298,114.201 495.298,85.0347 524.5,56C 533.006,49.5002 542.006,48.8336 551.5,54C 598.333,100.833 645.167,147.667 692,194.5C 693.94,197.928 695.106,201.594 695.5,205.5 Z"/></g>
<g><path style="opacity:1" fill="#6f2d1b" d="M 638.5,180.5 C 608.368,149.868 578.035,119.368 547.5,89C 544.131,85.7388 540.131,84.7388 535.5,86C 495.361,126.807 455.194,167.64 415,208.5C 414.536,209.094 414.369,209.761 414.5,210.5C 413.778,210.082 413.278,209.416 413,208.5C 412.333,205.833 412.333,203.167 413,200.5C 429.368,184.299 445.535,167.965 461.5,151.5C 484.371,128.312 507.371,105.146 530.5,82C 538.008,76.9795 545.008,77.6461 551.5,84C 583,115.5 614.5,147 646,178.5C 646.167,178.833 646.333,179.167 646.5,179.5C 643.914,180.48 641.247,180.813 638.5,180.5 Z"/></g>
<g><path style="opacity:1" fill="#1c1c4d" d="M 667.5,208.5 C 667.267,210.062 666.6,211.395 665.5,212.5C 656.167,221.167 647.167,230.167 638.5,239.5C 619.5,257.833 600.833,276.5 582.5,295.5C 570.368,307.131 558.368,318.965 546.5,331C 543.119,333.245 539.452,333.912 535.5,333C 522.632,319.965 509.632,307.131 496.5,294.5C 486.5,284.167 476.5,273.833 466.5,263.5C 466.937,261.926 467.937,260.759 469.5,260C 508.316,238.256 548.316,219.256 589.5,203C 599.48,199.706 609.48,196.373 619.5,193C 624.782,192.513 629.782,191.18 634.5,189C 638.517,188.329 642.517,187.996 646.5,188C 653.368,195.036 660.368,201.869 667.5,208.5 Z"/></g>
<g><path style="opacity:1" fill="#493a39" d="M 662.5,195.5 C 664.127,197.63 665.96,199.63 668,201.5C 668.796,204.039 668.629,206.372 667.5,208.5C 660.368,201.869 653.368,195.036 646.5,188C 642.517,187.996 638.517,188.329 634.5,189C 629.782,191.18 624.782,192.513 619.5,193C 609.48,196.373 599.48,199.706 589.5,203C 548.316,219.256 508.316,238.256 469.5,260C 467.937,260.759 466.937,261.926 466.5,263.5C 464.537,262.04 462.704,260.373 461,258.5C 460.251,257.365 460.417,256.365 461.5,255.5C 497.764,234.868 535.431,217.202 574.5,202.5C 586.68,198.153 599.014,193.986 611.5,190C 623.581,185.854 635.915,183.188 648.5,182C 653.035,186.703 657.702,191.203 662.5,195.5 Z"/></g>
<g><path style="opacity:1" fill="#eedeb5" d="M 437.5,143.5 C 437.649,144.552 437.483,145.552 437,146.5C 433.826,148.25 434.159,149.583 438,150.5C 439.194,149.57 440.527,148.903 442,148.5C 448.88,148.773 455.38,149.773 461.5,151.5C 445.535,167.965 429.368,184.299 413,200.5C 412.333,203.167 412.333,205.833 413,208.5C 413.278,209.416 413.778,210.082 414.5,210.5C 418.82,216.82 424.153,222.153 430.5,226.5C 460.865,215.157 491.865,205.824 523.5,198.5C 526.673,198.401 529.673,199.068 532.5,200.5C 544.34,199.177 556.173,199.177 568,200.5C 569.473,200.097 570.806,199.43 572,198.5C 572.772,199.849 573.939,200.682 575.5,201C 574.944,201.383 574.611,201.883 574.5,202.5C 535.431,217.202 497.764,234.868 461.5,255.5C 460.417,256.365 460.251,257.365 461,258.5C 462.704,260.373 464.537,262.04 466.5,263.5C 476.5,273.833 486.5,284.167 496.5,294.5C 490.439,294.79 484.439,294.457 478.5,293.5C 477.808,294.025 477.308,294.692 477,295.5C 474.763,294.944 472.763,293.944 471,292.5C 470.487,293.527 469.987,294.527 469.5,295.5C 440.396,266.721 412.063,238.721 384.5,211.5C 383.229,203.605 385.062,196.605 390,190.5C 405.701,174.632 421.535,158.965 437.5,143.5 Z"/></g>
<g><path style="opacity:1" fill="#eddfb5" d="M 692.5,209.5 C 691.015,213.176 688.848,216.509 686,219.5C 659.632,246.035 633.132,272.368 606.5,298.5C 605.124,293.589 602.624,293.256 599,297.5C 598.493,296.004 598.993,294.837 600.5,294C 597.254,294.317 593.92,294.483 590.5,294.5C 590.671,297.797 590.005,298.131 588.5,295.5C 587.186,296.313 586.019,297.313 585,298.5C 583.186,297.149 583.519,296.149 586,295.5C 586.667,294.833 586.667,294.167 586,293.5C 585.184,294.823 584.017,295.489 582.5,295.5C 600.833,276.5 619.5,257.833 638.5,239.5C 647.746,231.759 656.579,223.426 665,214.5C 665.464,213.906 665.631,213.239 665.5,212.5C 666.6,211.395 667.267,210.062 667.5,208.5C 668.629,206.372 668.796,204.039 668,201.5C 665.96,199.63 664.127,197.63 662.5,195.5C 661.965,192.824 661.132,189.824 660,186.5C 657.236,184.41 654.403,182.41 651.5,180.5C 655.048,180.381 658.715,180.215 662.5,180C 663.047,179.075 663.713,178.242 664.5,177.5C 666.326,179.781 668.326,179.781 670.5,177.5C 676.167,182.5 681.833,187.5 687.5,192.5C 691.387,197.497 693.054,203.164 692.5,209.5 Z"/></g>
<g><path style="opacity:1" fill="#626058" d="M 695.5,205.5 C 695.268,210.919 693.768,215.919 691,220.5C 644.446,267.054 597.946,313.554 551.5,360C 543.484,364.596 535.484,364.596 527.5,360C 481.999,314.166 436.166,268.666 390,223.5C 386.813,220.126 384.98,216.126 384.5,211.5C 412.063,238.721 440.396,266.721 469.5,295.5C 489.66,316.494 510.327,336.994 531.5,357C 539.082,358.548 546.082,357.215 552.5,353C 570.702,334.965 588.702,316.799 606.5,298.5C 633.132,272.368 659.632,246.035 686,219.5C 688.848,216.509 691.015,213.176 692.5,209.5C 693.022,207.781 694.022,206.448 695.5,205.5 Z"/></g>
<g><path style="opacity:1" fill="#aca095" d="M 665.5,212.5 C 665.631,213.239 665.464,213.906 665,214.5C 656.579,223.426 647.746,231.759 638.5,239.5C 647.167,230.167 656.167,221.167 665.5,212.5 Z"/></g>
<g><path style="opacity:1" fill="#cab17c" d="M 209.5,389.5 C 209.19,388.262 208.69,388.262 208,389.5C 208.553,386.507 209.553,383.507 211,380.5C 216.002,379.017 217.169,376.183 214.5,372C 215.891,370.35 217.391,369.85 219,370.5C 220.669,368.831 221.502,366.831 221.5,364.5C 216.156,364.334 210.823,364.501 205.5,365C 203.759,366.62 201.925,368.12 200,369.5C 199.536,368.906 199.369,368.239 199.5,367.5C 213.233,352.967 229.566,342.134 248.5,335C 217.945,334.21 187.945,337.876 158.5,346C 150.553,348.645 142.887,351.811 135.5,355.5C 133.544,353.103 131.71,353.103 130,355.5C 129.529,353.754 128.862,352.087 128,350.5C 127.5,351.667 126.667,352.5 125.5,353C 126.711,353.893 126.711,354.726 125.5,355.5C 122.98,353.174 122.313,350.507 123.5,347.5C 141.825,338.925 161.158,333.425 181.5,331C 196.771,328.945 212.104,327.612 227.5,327C 248.853,326.411 270.186,325.745 291.5,325C 295.872,327.195 296.539,330.195 293.5,334C 289.256,335.263 284.922,336.096 280.5,336.5C 275.184,335.557 269.851,335.39 264.5,336C 249.412,342.805 236.579,352.638 226,365.5C 220.23,373.392 214.73,381.392 209.5,389.5 Z"/></g>
<g><path style="opacity:1" fill="#f0e2b3" d="M 496.5,294.5 C 509.632,307.131 522.632,319.965 535.5,333C 539.452,333.912 543.119,333.245 546.5,331C 558.368,318.965 570.368,307.131 582.5,295.5C 584.017,295.489 585.184,294.823 586,293.5C 586.667,294.167 586.667,294.833 586,295.5C 583.519,296.149 583.186,297.149 585,298.5C 586.019,297.313 587.186,296.313 588.5,295.5C 590.005,298.131 590.671,297.797 590.5,294.5C 593.92,294.483 597.254,294.317 600.5,294C 598.993,294.837 598.493,296.004 599,297.5C 602.624,293.256 605.124,293.589 606.5,298.5C 588.702,316.799 570.702,334.965 552.5,353C 546.082,357.215 539.082,358.548 531.5,357C 510.327,336.994 489.66,316.494 469.5,295.5C 469.987,294.527 470.487,293.527 471,292.5C 472.763,293.944 474.763,294.944 477,295.5C 477.308,294.692 477.808,294.025 478.5,293.5C 484.439,294.457 490.439,294.79 496.5,294.5 Z"/></g>
<g><path style="opacity:0.999" fill="#dbc288" d="M 209.5,389.5 C 202.434,403.299 195.1,416.965 187.5,430.5C 186.761,430.631 186.094,430.464 185.5,430C 188.039,427.464 189.205,424.63 189,421.5C 189.667,422.833 190.333,422.833 191,421.5C 191.402,420.128 191.902,418.795 192.5,417.5C 185.523,416.383 178.856,416.383 172.5,417.5C 170.519,418.105 170.185,419.105 171.5,420.5C 169.141,421.714 166.808,421.714 164.5,420.5C 171.068,408.365 177.902,396.365 185,384.5C 189.323,378.348 194.157,372.681 199.5,367.5C 199.369,368.239 199.536,368.906 200,369.5C 201.925,368.12 203.759,366.62 205.5,365C 210.823,364.501 216.156,364.334 221.5,364.5C 221.502,366.831 220.669,368.831 219,370.5C 217.391,369.85 215.891,370.35 214.5,372C 217.169,376.183 216.002,379.017 211,380.5C 209.553,383.507 208.553,386.507 208,389.5C 208.69,388.262 209.19,388.262 209.5,389.5 Z"/></g>
<g><path style="opacity:0.98" fill="#dedfdf" d="M 576.5,402.5 C 602.502,402.333 628.502,402.5 654.5,403C 655.022,403.561 655.355,404.228 655.5,405C 653.435,410.428 651.602,415.928 650,421.5C 649.535,422.931 648.701,424.097 647.5,425C 625.492,425.167 603.492,425.667 581.5,426.5C 579.883,430.014 578.883,433.681 578.5,437.5C 594.17,437.333 609.837,437.5 625.5,438C 634.641,441.776 638.474,448.609 637,458.5C 634.007,467.157 631.007,475.824 628,484.5C 625.668,490.164 621.501,493.664 615.5,495C 589.167,495.667 562.833,495.667 536.5,495C 535.941,494.275 535.608,493.442 535.5,492.5C 537.51,486.137 539.51,479.804 541.5,473.5C 563.169,473.667 584.836,473.5 606.5,473C 608.541,468.711 609.874,464.211 610.5,459.5C 595.83,459.667 581.163,459.5 566.5,459C 556.584,455.667 552.417,448.834 554,438.5C 556.67,430.489 559.337,422.489 562,414.5C 564.976,408.005 569.809,404.005 576.5,402.5 Z"/></g>
<g><path style="opacity:0.982" fill="#dedede" d="M 665.5,402.5 C 688.211,402.053 710.878,402.553 733.5,404C 743.458,409.483 746.291,417.649 742,428.5C 739.469,435.091 737.136,441.758 735,448.5C 732.744,453.757 728.91,457.257 723.5,459C 705.5,459.333 687.5,459.667 669.5,460C 665.553,471.843 661.22,483.51 656.5,495C 649.174,495.5 641.841,495.666 634.5,495.5C 634.338,493.473 634.505,491.473 635,489.5C 640.781,472.153 646.948,454.987 653.5,438C 673.5,437.667 693.5,437.333 713.5,437C 714.927,433.556 716.26,430.056 717.5,426.5C 698.175,425.667 678.842,425.167 659.5,425C 659.515,417.117 661.515,409.617 665.5,402.5 Z"/></g>
<g><path style="opacity:0.971" fill="#dedede" d="M 769.5,402.5 C 789.169,402.333 808.836,402.5 828.5,403C 841.026,405.554 845.86,413.054 843,425.5C 836,445.833 829,466.167 822,486.5C 819.188,490.662 815.355,493.495 810.5,495C 789.5,495.667 768.5,495.667 747.5,495C 741.499,493.664 737.332,490.164 735,484.5C 734.333,480.5 734.333,476.5 735,472.5C 742.058,453.327 748.724,433.994 755,414.5C 757.949,408.036 762.783,404.036 769.5,402.5 Z M 774.5,425.5 C 788.849,425.167 803.182,425.501 817.5,426.5C 812.296,441.735 806.963,456.902 801.5,472C 787.155,472.833 772.822,472.666 758.5,471.5C 763.642,456.074 768.975,440.741 774.5,425.5 Z"/></g>
<g><path style="opacity:0.976" fill="#dedede" d="M 860.5,402.5 C 881.503,402.333 902.503,402.5 923.5,403C 934.612,405.439 939.445,412.272 938,423.5C 934.927,433.719 931.26,443.719 927,453.5C 924.374,456.231 921.207,458.064 917.5,459C 912.467,459.171 907.467,459.671 902.5,460.5C 906.098,470.128 909.598,479.795 913,489.5C 913.743,491.441 913.576,493.274 912.5,495C 905.918,495.81 899.418,495.643 893,494.5C 888.702,482.969 884.868,471.302 881.5,459.5C 875.5,459.5 869.5,459.5 863.5,459.5C 860.309,470.574 856.809,481.574 853,492.5C 852.5,493.667 851.667,494.5 850.5,495C 843.5,495.667 836.5,495.667 829.5,495C 828.978,494.439 828.645,493.772 828.5,493C 834.972,474.585 841.638,456.251 848.5,438C 869.164,437.5 889.831,437.333 910.5,437.5C 911.809,433.596 912.809,429.596 913.5,425.5C 893.497,425.667 873.497,425.5 853.5,425C 852.978,424.439 852.645,423.772 852.5,423C 854.508,415.832 857.175,408.999 860.5,402.5 Z"/></g>
<g><path style="opacity:0.975" fill="#dbdbdb" d="M 971.5,426.5 C 972.043,426.44 972.376,426.107 972.5,425.5C 963.342,424.178 954.342,424.178 945.5,425.5C 943.052,425.915 941.719,424.915 941.5,422.5C 943.344,415.799 945.678,409.299 948.5,403C 976.833,402.333 1005.17,402.333 1033.5,403C 1034.17,403.667 1034.83,404.333 1035.5,405C 1033.11,411.779 1030.44,418.446 1027.5,425C 1016.84,425.5 1006.17,425.667 995.5,425.5C 988.172,448.651 980.338,471.651 972,494.5C 964.587,495.481 957.087,495.814 949.5,495.5C 949.338,493.473 949.505,491.473 950,489.5C 957.273,468.514 964.44,447.514 971.5,426.5 Z"/></g>
<g><path style="opacity:1" fill="#d9c087" d="M 123.5,347.5 C 122.313,350.507 122.98,353.174 125.5,355.5C 126.711,354.726 126.711,353.893 125.5,353C 126.667,352.5 127.5,351.667 128,350.5C 128.862,352.087 129.529,353.754 130,355.5C 131.71,353.103 133.544,353.103 135.5,355.5C 114.386,367.067 106.219,384.734 111,408.5C 114.255,414.713 119.421,417.713 126.5,417.5C 140.347,416.149 149.18,408.816 153,395.5C 153.284,388.153 153.284,380.819 153,373.5C 158.733,368.635 162.4,369.968 164,377.5C 167.712,396.576 161.212,411.076 144.5,421C 128.936,429.085 113.27,429.419 97.5,422C 87.1074,413.693 82.9408,402.859 85,389.5C 87.447,377.111 93.6137,366.944 103.5,359C 109.583,354.068 116.25,350.235 123.5,347.5 Z"/></g>
<g><path style="opacity:0.989" fill="#dfc78a" d="M 387.5,467.5 C 386.883,467.389 386.383,467.056 386,466.5C 386.004,463.58 385.837,460.747 385.5,458C 386.232,456.235 387.565,455.068 389.5,454.5C 386.285,453.552 385.952,452.219 388.5,450.5C 386.664,449.204 384.664,448.37 382.5,448C 383,447.5 383.5,447 384,446.5C 385.494,447.747 386.994,447.747 388.5,446.5C 384.204,445.672 379.871,445.172 375.5,445C 375,444.5 374.5,444 374,443.5C 373.71,445.044 373.044,446.377 372,447.5C 370.562,446.1 369.729,444.433 369.5,442.5C 378.6,426.907 391.6,415.741 408.5,409C 419.856,403.521 431.522,402.521 443.5,406C 454.235,412.133 456.402,420.633 450,431.5C 439.729,441.556 427.562,448.389 413.5,452C 405.707,454.073 397.874,455.907 390,457.5C 389.055,457.905 388.388,458.572 388,459.5C 387.503,462.146 387.336,464.813 387.5,467.5 Z M 422.5,411.5 C 428.997,411.18 431.164,414.18 429,420.5C 423.464,433.035 414.298,441.868 401.5,447C 398.263,448.452 394.93,449.619 391.5,450.5C 391.167,450.167 390.833,449.833 390.5,449.5C 397.266,433.412 407.933,420.746 422.5,411.5 Z"/></g>
<g><path style="opacity:0.996" fill="#e1c98a" d="M 317.5,477.5 C 317.912,473.346 318.912,469.346 320.5,465.5C 313.578,465.812 306.744,465.479 300,464.5C 297.834,466.121 295.334,466.955 292.5,467C 291.328,468.868 291.495,470.702 293,472.5C 294.156,471.007 294.99,471.174 295.5,473C 295.022,474.303 294.355,475.469 293.5,476.5C 288.373,480.455 283.373,484.622 278.5,489C 266.822,496.785 254.822,497.452 242.5,491C 239.862,487.423 238.195,483.423 237.5,479C 238.456,473.675 239.956,468.508 242,463.5C 251.093,450.08 259.759,436.413 268,422.5C 269.539,418.195 268.206,415.528 264,414.5C 260.008,415.413 256.508,417.246 253.5,420C 239.91,432.254 227.743,445.754 217,460.5C 210.54,471.256 203.707,481.756 196.5,492C 188.31,493.678 180.144,493.845 172,492.5C 172.086,489.298 173.086,486.298 175,483.5C 189.252,459.998 203.252,436.332 217,412.5C 218.543,410.622 220.376,409.122 222.5,408C 231.162,407.345 239.828,406.845 248.5,406.5C 248.161,409.786 247.327,412.786 246,415.5C 254.014,408.495 263.347,404.495 274,403.5C 287.395,404.887 293.395,412.22 292,425.5C 290.864,429.243 289.53,432.91 288,436.5C 280.333,448.167 272.667,459.833 265,471.5C 262.418,476.164 261.251,481.164 261.5,486.5C 265.511,486.498 269.178,485.332 272.5,483C 287.134,471.036 299.634,457.203 310,441.5C 313.497,434.502 317.497,427.835 322,421.5C 323.009,419.975 323.509,418.308 323.5,416.5C 319.429,416.766 315.429,416.433 311.5,415.5C 310.058,412.213 310.725,409.38 313.5,407C 319.278,406.906 324.944,406.239 330.5,405C 335.126,397.583 339.626,390.083 344,382.5C 345.214,380.951 346.714,379.785 348.5,379C 356.216,378.801 363.882,378.301 371.5,377.5C 373.724,378.081 374.557,379.414 374,381.5C 368.624,389.753 363.124,397.92 357.5,406C 366.16,406.5 374.827,406.666 383.5,406.5C 383.98,409.685 383.314,412.519 381.5,415C 371.883,416.193 362.216,416.859 352.5,417C 339.909,436.689 328.242,456.856 317.5,477.5 Z"/></g>
<g><path style="opacity:0.994" fill="#dfc78a" d="M 480.5,460.5 C 480.461,459.417 480.127,458.417 479.5,457.5C 477.5,456.833 475.5,456.167 473.5,455.5C 474.438,454.447 475.605,453.78 477,453.5C 481.139,454.994 483.473,453.661 484,449.5C 483.667,449.833 483.333,450.167 483,450.5C 481.933,449.809 480.766,449.309 479.5,449C 478.167,448 478.167,447 479.5,446C 476.574,445.782 473.74,445.282 471,444.5C 469.984,445.634 469.317,445.301 469,443.5C 467.921,445.394 466.587,445.727 465,444.5C 462.943,447.462 460.776,450.295 458.5,453C 460.291,453.415 461.624,454.415 462.5,456C 459.493,456.132 456.493,456.965 453.5,458.5C 453.5,459.5 453.5,460.5 453.5,461.5C 451.784,461.629 450.117,461.962 448.5,462.5C 451.165,459.665 453.665,456.665 456,453.5C 464,439.5 472,425.5 480,411.5C 481.319,409.513 483.152,408.346 485.5,408C 493.838,407.291 502.172,406.958 510.5,407C 511.517,408.049 511.684,409.216 511,410.5C 508.623,414.088 506.123,417.588 503.5,421C 509.488,418.151 515.155,414.485 520.5,410C 529.326,405.268 538.659,403.435 548.5,404.5C 549.583,405.365 549.749,406.365 549,407.5C 543.555,415.389 540.055,424.056 538.5,433.5C 539.06,440.065 542.727,442.731 549.5,441.5C 549.607,443.903 548.607,445.736 546.5,447C 537.67,452.531 528.67,452.864 519.5,448C 517.291,446.127 515.458,443.96 514,441.5C 512.664,435.966 512.164,430.633 512.5,425.5C 500.393,435.937 489.726,447.603 480.5,460.5 Z"/></g>
<g><path style="opacity:0.008" fill="#000000" d="M 945.5,425.5 C 954.342,424.178 963.342,424.178 972.5,425.5C 972.376,426.107 972.043,426.44 971.5,426.5C 963.016,425.507 954.349,425.174 945.5,425.5 Z"/></g>
<g><path style="opacity:1" fill="#e4cc8b" d="M 187.5,430.5 C 174.843,452.99 157.843,471.49 136.5,486C 114.052,499.133 90.3855,502.133 65.5,495C 49.8997,489.622 43.0663,478.789 45,462.5C 48.1662,451.659 55.3328,446.825 66.5,448C 73.9032,451.515 76.7366,457.348 75,465.5C 73.3054,468.695 70.8054,471.028 67.5,472.5C 66.1563,478.001 67.823,482.501 72.5,486C 90.4442,493.355 107.111,491.021 122.5,479C 127.886,474.737 132.719,469.903 137,464.5C 146.943,450.274 156.109,435.607 164.5,420.5C 166.808,421.714 169.141,421.714 171.5,420.5C 170.185,419.105 170.519,418.105 172.5,417.5C 178.856,416.383 185.523,416.383 192.5,417.5C 191.902,418.795 191.402,420.128 191,421.5C 190.333,422.833 189.667,422.833 189,421.5C 189.205,424.63 188.039,427.464 185.5,430C 186.094,430.464 186.761,430.631 187.5,430.5 Z"/></g>
<g><path style="opacity:0.998" fill="#e7ce8a" d="M 369.5,442.5 C 369.729,444.433 370.562,446.1 372,447.5C 373.044,446.377 373.71,445.044 374,443.5C 374.5,444 375,444.5 375.5,445C 379.871,445.172 384.204,445.672 388.5,446.5C 386.994,447.747 385.494,447.747 384,446.5C 383.5,447 383,447.5 382.5,448C 384.664,448.37 386.664,449.204 388.5,450.5C 385.952,452.219 386.285,453.552 389.5,454.5C 387.565,455.068 386.232,456.235 385.5,458C 385.837,460.747 386.004,463.58 386,466.5C 386.383,467.056 386.883,467.389 387.5,467.5C 390.425,481.806 399.091,487.306 413.5,484C 426.841,479.479 438.508,472.312 448.5,462.5C 450.117,461.962 451.784,461.629 453.5,461.5C 453.5,460.5 453.5,459.5 453.5,458.5C 456.493,456.965 459.493,456.132 462.5,456C 461.624,454.415 460.291,453.415 458.5,453C 460.776,450.295 462.943,447.462 465,444.5C 466.587,445.727 467.921,445.394 469,443.5C 469.317,445.301 469.984,445.634 471,444.5C 473.74,445.282 476.574,445.782 479.5,446C 478.167,447 478.167,448 479.5,449C 480.766,449.309 481.933,449.809 483,450.5C 483.333,450.167 483.667,449.833 484,449.5C 483.473,453.661 481.139,454.994 477,453.5C 475.605,453.78 474.438,454.447 473.5,455.5C 475.5,456.167 477.5,456.833 479.5,457.5C 480.127,458.417 480.461,459.417 480.5,460.5C 474.495,470.018 468.662,479.685 463,489.5C 460.958,491.604 458.458,492.771 455.5,493C 448.833,493.667 442.167,493.667 435.5,493C 435.043,492.586 434.709,492.086 434.5,491.5C 435.833,488.833 437.167,486.167 438.5,483.5C 438.167,483.167 437.833,482.833 437.5,482.5C 421.889,493.47 404.556,498.303 385.5,497C 370.085,494.251 361.585,485.085 360,469.5C 349.424,480.868 336.924,489.368 322.5,495C 313.322,496.74 304.822,495.24 297,490.5C 294.056,486.285 292.889,481.618 293.5,476.5C 294.355,475.469 295.022,474.303 295.5,473C 294.99,471.174 294.156,471.007 293,472.5C 291.495,470.702 291.328,468.868 292.5,467C 295.334,466.955 297.834,466.121 300,464.5C 306.744,465.479 313.578,465.812 320.5,465.5C 318.912,469.346 317.912,473.346 317.5,477.5C 317.5,480.5 317.5,483.5 317.5,486.5C 327.412,484.377 336.079,479.877 343.5,473C 353.906,464.111 362.573,453.944 369.5,442.5 Z"/></g>
</svg>
